<svg xmlns="http://www.w3.org/2000/svg" xmlns:xlink="http://www.w3.org/1999/xlink" xmlns:lucid="lucid" width="1661.5" height="1462.88"><g transform="translate(-738.5 -18.5)" lucid:page-tab-id="0_0"><path d="M500 0h2000v1500H500z" fill="#fff"/><path d="M760 166a6 6 0 0 1 6-6h493a6 6 0 0 1 6 6v8a14.48 14.48 0 0 1-4.24 10.24l-1.52 1.52A14.48 14.48 0 0 1 1249 190H766a6 6 0 0 1-6-6z" fill="#fff"/><path d="M1265 160v20l-10 10H760" stroke="#5e5e5e" stroke-width="3" fill="none"/><path d="M760 166a6 6 0 0 1 6-6h568a6 6 0 0 1 6 6v568a6 6 0 0 1-6 6H766a6 6 0 0 1-6-6z" stroke="#5e5e5e" stroke-width="3" fill="none"/><use xlink:href="#a" transform="matrix(1,0,0,1,768,160) translate(0 19.444444444444443)"/><use xlink:href="#b" transform="matrix(1,0,0,1,768,160) translate(170.2469135802469 19.444444444444443)"/><path d="M821.65 286a6 6 0 0 1 6-6h268a6 6 0 0 1 6 6v100a6 6 0 0 1-6 6h-268a6 6 0 0 1-6-6zM821.65 534a6 6 0 0 1 6-6h268a6 6 0 0 1 6 6v100a6 6 0 0 1-6 6h-268a6 6 0 0 1-6-6z" stroke="#5e5e5e" stroke-width="3" fill-opacity="0"/><path d="M1798.5 640a6 6 0 0 1 6-6h368a6 6 0 0 1 6 6v8a14.48 14.48 0 0 1-4.24 10.24l-1.52 1.52a14.48 14.48 0 0 1-10.24 4.24h-358a6 6 0 0 1-6-6z" fill="#fff"/><path d="M2178.5 634v20l-10 10h-370" stroke="#5e5e5e" stroke-width="3" fill="none"/><path d="M1798.5 640a6 6 0 0 1 6-6h568a6 6 0 0 1 6 6v488a6 6 0 0 1-6 6h-568a6 6 0 0 1-6-6z" stroke="#5e5e5e" stroke-width="3" fill="none"/><use xlink:href="#a" transform="matrix(1,0,0,1,1806.5000499999906,634) translate(0 19.444444444444443)"/><use xlink:href="#c" transform="matrix(1,0,0,1,1806.5000499999906,634) translate(170.2469135802469 19.444444444444443)"/><path d="M2020.5 700a6 6 0 0 1 6-6h268a6 6 0 0 1 6 6v100a6 6 0 0 1-6 6h-268a6 6 0 0 1-6-6z" stroke="#5e5e5e" stroke-width="3" fill-opacity="0"/><path d="M760 925.88a6 6 0 0 1 6-6h493a6 6 0 0 1 6 6v8a14.48 14.48 0 0 1-4.24 10.24l-1.52 1.52a14.48 14.48 0 0 1-10.24 4.24H766a6 6 0 0 1-6-6z" fill="#fff"/><path d="M1265 919.88v20l-10 10H760" stroke="#5e5e5e" stroke-width="3" fill="none"/><path d="M760 925.88a6 6 0 0 1 6-6h528a6 6 0 0 1 6 6v528a6 6 0 0 1-6 6H766a6 6 0 0 1-6-6z" stroke="#5e5e5e" stroke-width="3" fill="none"/><use xlink:href="#a" transform="matrix(1,0,0,1,768,919.878766040687) translate(0 19.444444444444443)"/><use xlink:href="#d" transform="matrix(1,0,0,1,768,919.878766040687) translate(170.2469135802469 19.444444444444443)"/><path d="M800 1020.54a6 6 0 0 1 6-6h268a6 6 0 0 1 6 6v100a6 6 0 0 1-6 6H806a6 6 0 0 1-6-6zM800 1225.88a6 6 0 0 1 6-6h268a6 6 0 0 1 6 6v100a6 6 0 0 1-6 6H806a6 6 0 0 1-6-6z" stroke="#5e5e5e" stroke-width="3" fill-opacity="0"/><path d="M1919.5 46a6 6 0 0 1 6-6h368a6 6 0 0 1 6 6v8a14.48 14.48 0 0 1-4.24 10.24l-1.52 1.52A14.48 14.48 0 0 1 2283.5 70h-358a6 6 0 0 1-6-6z" fill="#fff"/><path d="M2299.5 40v20l-10 10h-370" stroke="#5e5e5e" stroke-width="3" fill="none"/><path d="M1919.5 46a6 6 0 0 1 6-6h368a6 6 0 0 1 6 6v480a6 6 0 0 1-6 6h-368a6 6 0 0 1-6-6z" stroke="#5e5e5e" stroke-width="3" fill="none"/><use xlink:href="#a" transform="matrix(1,0,0,1,1927.5010499999908,40) translate(0 19.444444444444443)"/><use xlink:href="#e" transform="matrix(1,0,0,1,1927.5010499999908,40) translate(170.2469135802469 19.444444444444443)"/><path d="M2037.44 127.33a6 6 0 0 1 6-6h229.06a6 6 0 0 1 6 6v81.34a6 6 0 0 1-6 6h-229.06a6 6 0 0 1-6-6zM2037.44 327.33a6 6 0 0 1 6-6h229.06a6 6 0 0 1 6 6v81.34a6 6 0 0 1-6 6h-229.06a6 6 0 0 1-6-6zM2020.5 994.67a6 6 0 0 1 6-6h268a6 6 0 0 1 6 6v100a6 6 0 0 1-6 6h-268a6 6 0 0 1-6-6z" stroke="#5e5e5e" stroke-width="3" fill-opacity="0"/><path d="M862.82 318a6 6 0 0 1 6-6h185.65a6 6 0 0 1 6 6v36a6 6 0 0 1-6 6H868.82a6 6 0 0 1-6-6z" fill="none"/><use xlink:href="#f" transform="matrix(1,0,0,1,862.8235294117649,312) translate(12.024691358024697 28.444444444444443)"/><use xlink:href="#g" transform="matrix(1,0,0,1,862.8235294117649,312) translate(102.08641975308642 28.444444444444443)"/><use xlink:href="#h" transform="matrix(1,0,0,1,862.8235294117649,312) translate(132.95061728395063 28.444444444444443)"/><path d="M871.06 566a6 6 0 0 1 6-6h185.65a6 6 0 0 1 6 6v36a6 6 0 0 1-6 6H877.07a6 6 0 0 1-6-6z" fill="none"/><use xlink:href="#f" transform="matrix(1,0,0,1,871.0588235294119,560) translate(0.9444444444444429 28.444444444444443)"/><use xlink:href="#g" transform="matrix(1,0,0,1,871.0588235294119,560) translate(91.00617283950616 28.444444444444443)"/><use xlink:href="#i" transform="matrix(1,0,0,1,871.0588235294119,560) translate(121.87037037037037 28.444444444444443)"/><path d="M2038.5 720a6 6 0 0 1 6-6h228a6 6 0 0 1 6 6v48a6 6 0 0 1-6 6h-228a6 6 0 0 1-6-6z" fill="none"/><use xlink:href="#j" transform="matrix(1,0,0,1,2038.5000499999906,714) translate(79.96913580246914 34.44444444444444)"/><path d="M839.53 1048.55a6 6 0 0 1 6-6h185.65a6 6 0 0 1 6 6v36a6 6 0 0 1-6 6H845.53a6 6 0 0 1-6-6z" fill="none"/><use xlink:href="#k" transform="matrix(1,0,0,1,839.5294117647061,1042.5454327073535) translate(25.018518518518505 17.77777777777778)"/><use xlink:href="#l" transform="matrix(1,0,0,1,839.5294117647061,1042.5454327073535) translate(148.29012345679013 17.77777777777778)"/><use xlink:href="#m" transform="matrix(1,0,0,1,839.5294117647061,1042.5454327073535) translate(55.851851851851855 44.44444444444444)"/><path d="M849.4 1257.88a6 6 0 0 1 6-6h185.66a6 6 0 0 1 6 6v36a6 6 0 0 1-6 6H855.4a6 6 0 0 1-6-6z" fill="none"/><use xlink:href="#n" transform="matrix(1,0,0,1,849.4117647058824,1251.878766040687) translate(24.4320987654321 17.77777777777778)"/><use xlink:href="#o" transform="matrix(1,0,0,1,849.4117647058824,1251.878766040687) translate(126.77777777777779 17.77777777777778)"/><use xlink:href="#p" transform="matrix(1,0,0,1,849.4117647058824,1251.878766040687) translate(61.99382716049383 44.44444444444444)"/><path d="M2072.9 154a6 6 0 0 1 6-6h158.15a6 6 0 0 1 6 6v28a6 6 0 0 1-6 6H2078.9a6 6 0 0 1-6-6z" fill="none"/><use xlink:href="#q" transform="matrix(1,0,0,1,2072.8913889170144,147.99999999999977) translate(39.913580246913575 17.77777777777778)"/><use xlink:href="#r" transform="matrix(1,0,0,1,2072.8913889170144,147.99999999999977) translate(30.00617283950617 44.44444444444444)"/><path d="M2079.98 354a6 6 0 0 1 6-6h158.16a6 6 0 0 1 6 6v28a6 6 0 0 1-6 6h-158.16a6 6 0 0 1-6-6z" fill="none"/><use xlink:href="#s" transform="matrix(1,0,0,1,2079.9813772302205,347.9999999999998) translate(23.154320987654323 17.77777777777778)"/><use xlink:href="#l" transform="matrix(1,0,0,1,2079.9813772302205,347.9999999999998) translate(123.15432098765433 17.77777777777778)"/><use xlink:href="#t" transform="matrix(1,0,0,1,2079.9813772302205,347.9999999999998) translate(33.74074074074074 44.44444444444444)"/><path d="M2040.5 1014.67a6 6 0 0 1 6-6h228a6 6 0 0 1 6 6v48a6 6 0 0 1-6 6h-228a6 6 0 0 1-6-6z" fill="none"/><use xlink:href="#u" transform="matrix(1,0,0,1,2040.5000499999906,1008.6666666666665) translate(57.71604938271604 21.111111111111114)"/><use xlink:href="#v" transform="matrix(1,0,0,1,2040.5000499999906,1008.6666666666665) translate(71.94444444444444 47.777777777777786)"/><use xlink:href="#w" transform="matrix(1,0,0,1,2040.5000499999906,1008.6666666666665) translate(102.80864197530863 47.777777777777786)"/><path d="M2018.5 160.67a6 6 0 0 1 6-6h22.44a6 6 0 0 1 6 6V182a6 6 0 0 1-6 6h-22.44a6 6 0 0 1-6-6zM2018.5 357.33a6 6 0 0 1 6-6h22.44a6 6 0 0 1 6 6v21.34a6 6 0 0 1-6 6h-22.44a6 6 0 0 1-6-6zM2140.5 964a6 6 0 0 1 6-6h28a6 6 0 0 1 6 6v28a6 6 0 0 1-6 6h-28a6 6 0 0 1-6-6zM1083.3 574a6 6 0 0 1 6-6h28a6 6 0 0 1 6 6v28a6 6 0 0 1-6 6h-28a6 6 0 0 1-6-6zM1081.65 322a6 6 0 0 1 6-6h28a6 6 0 0 1 6 6v28a6 6 0 0 1-6 6h-28a6 6 0 0 1-6-6zM1998.5 736a6 6 0 0 1 6-6h28a6 6 0 0 1 6 6v28a6 6 0 0 1-6 6h-28a6 6 0 0 1-6-6zM1320 436a6 6 0 0 1 6-6h28a6 6 0 0 1 6 6v28a6 6 0 0 1-6 6h-28a6 6 0 0 1-6-6zM1898.5 266a6 6 0 0 1 6-6h28a6 6 0 0 1 6 6v28a6 6 0 0 1-6 6h-28a6 6 0 0 1-6-6z" stroke="#5e5e5e" stroke-width="3" fill="#fff"/><path d="M1124.15 336H1159" stroke="#5e5e5e" stroke-width="2" fill="none"/><path d="M1124.17 336.98h-1.02v-1.96h1.02zM1160 336.98h-1.03v-1.96h1.03z" stroke="#5e5e5e" stroke-width=".05" fill="#5e5e5e"/><path d="M1821 750h62.07" stroke="#5e5e5e" stroke-width="2" fill="none"/><path d="M1821.03 750.98H1820V749h1.03zM1883.94 750.98h-.9V749h1.15z" stroke="#5e5e5e" stroke-width=".05" fill="#5e5e5e"/><path d="M1125.8 588h33.2" stroke="#5e5e5e" stroke-width="2" fill="none"/><path d="M1125.82 588.98h-1.03V587h1.02zM1160 588.98h-1.03V587h1.03z" stroke="#5e5e5e" stroke-width=".05" fill="#5e5e5e"/><path d="M1918.5 752.5c0 9.67-7.44 17.5-16.63 17.5-9.18 0-16.62-7.83-16.62-17.5 0-9.64 7.44-17.47 16.62-17.47 9.2 0 16.63 7.83 16.63 17.48z" stroke="#5e5e5e" stroke-width="3" fill="#fff"/><path d="M1921 752.5h75" stroke="#5e5e5e" stroke-width="2" fill="none"/><path d="M1921.04 753.5h-1.15l.1-1-.12-.96h1.16zM1997 753.5h-1.03v-1.96h1.03z" stroke="#5e5e5e" stroke-width=".05" fill="#5e5e5e"/><path d="M2177.13 911.5c0 9.64-7.45 17.47-16.63 17.47s-16.63-7.83-16.63-17.48c0-9.67 7.45-17.5 16.63-17.5s16.63 7.83 16.63 17.5zM1778.5 736a6 6 0 0 1 6-6h28a6 6 0 0 1 6 6v28a6 6 0 0 1-6 6h-28a6 6 0 0 1-6-6z" stroke="#5e5e5e" stroke-width="3" fill="#fff"/><path d="M2160.5 955.5v-24" stroke="#5e5e5e" stroke-width="2" fill="none"/><path d="M2161.47 956.5h-1.94v-1.03h1.94zM2160.5 930.5l.97-.14v1.15h-1.94v-1.14z" stroke="#5e5e5e" stroke-width=".05" fill="#5e5e5e"/><path d="M2139.13 800a6 6 0 0 1 6-6h28a6 6 0 0 1 6 6v28a6 6 0 0 1-6 6h-28a6 6 0 0 1-6-6z" stroke="#5e5e5e" stroke-width="3" fill="#fff"/><path d="M1102.97 1066.55h62.07" stroke="#5e5e5e" stroke-width="2" fill="none"/><path d="M1103 1067.52h-1.03v-1.95h1.03zM1165.9 1067.52h-.9v-1.95h1.16z" stroke="#5e5e5e" stroke-width=".05" fill="#5e5e5e"/><path d="M1200.47 1069.06c0 9.66-7.44 17.5-16.63 17.5-9.18 0-16.62-7.84-16.62-17.5s7.44-17.5 16.63-17.5c9.18 0 16.62 7.84 16.62 17.5z" stroke="#5e5e5e" stroke-width="3" fill="#fff"/><path d="M1202.98 1069.06h31.26a6 6 0 0 1 6 6v98.82a6 6 0 0 0 6 6h31.26" stroke="#5e5e5e" stroke-width="2" fill="none"/><path d="M1203 1070.04h-1.14l.12-.98-.12-.97h1.15zM1278.5 1180.85h-1.03v-1.95h1.03z" stroke="#5e5e5e" stroke-width=".05" fill="#5e5e5e"/><path d="M1060.47 1052.55a6 6 0 0 1 6-6h28a6 6 0 0 1 6 6v28a6 6 0 0 1-6 6h-28a6 6 0 0 1-6-6zM1280 1165.88a6 6 0 0 1 6-6h28a6 6 0 0 1 6 6v28a6 6 0 0 1-6 6h-28a6 6 0 0 1-6-6z" stroke="#5e5e5e" stroke-width="3" fill="#fff"/><path d="M1102.5 1279.88h62.07" stroke="#5e5e5e" stroke-width="2" fill="none"/><path d="M1102.53 1280.85h-1.03v-1.95h1.03zM1165.44 1280.85h-.9v-1.95h1.15z" stroke="#5e5e5e" stroke-width=".05" fill="#5e5e5e"/><path d="M1200 1282.4c0 9.65-7.44 17.48-16.63 17.48-9.18 0-16.62-7.83-16.62-17.5 0-9.64 7.44-17.47 16.62-17.47 9.2 0 16.63 7.84 16.63 17.5z" stroke="#5e5e5e" stroke-width="3" fill="#fff"/><path d="M1202.5 1282.4h31.5a6 6 0 0 0 6-6v-88a6 6 0 0 1 6-6h31.5" stroke="#5e5e5e" stroke-width="2" fill="none"/><path d="M1202.54 1283.37h-1.15l.1-.98-.12-.98h1.16zM1278.5 1183.37h-1.03v-1.95h1.03z" stroke="#5e5e5e" stroke-width=".05" fill="#5e5e5e"/><path d="M1060 1265.88a6 6 0 0 1 6-6h28a6 6 0 0 1 6 6v28a6 6 0 0 1-6 6h-28a6 6 0 0 1-6-6z" stroke="#5e5e5e" stroke-width="3" fill="#fff"/><path d="M2160.5 868v-31.5" stroke="#5e5e5e" stroke-width="2" fill="none"/><path d="M2161.47 869h-1.94v-1.03h1.94zM2161.47 836.53h-1.94v-1.03h1.94z" stroke="#5e5e5e" stroke-width=".05" fill="#5e5e5e"/><path d="M1322.5 1179.88H1434a6 6 0 0 0 6-6V846.36" stroke="#5e5e5e" stroke-width="2" fill="none"/><path d="M1322.53 1180.85h-1.03v-1.95h1.03zM1440 845.36l.97-.12v1.15h-1.94v-1.16z" stroke="#5e5e5e" stroke-width=".05" fill="#5e5e5e"/><path d="M1941 280h31.5a6 6 0 0 0 6-6v-96.67a6 6 0 0 1 6-6h31.5" stroke="#5e5e5e" stroke-width="2" fill="none"/><path d="M1941.03 280.98H1940v-1.96h1.03zM2017 172.3h-1.03v-1.94h1.03z" stroke="#5e5e5e" stroke-width=".05" fill="#5e5e5e"/><path d="M1941 287h31.5a6 6 0 0 1 6 6v69a6 6 0 0 0 6 6h31.5" stroke="#5e5e5e" stroke-width="2" fill="none"/><path d="M1941.03 287.98H1940v-1.96h1.03zM2017 368.98h-1.03v-1.96h1.03z" stroke="#5e5e5e" stroke-width=".05" fill="#5e5e5e"/><path d="M1991.75 217.5c0 9.64-7.44 17.47-16.62 17.47-9.2 0-16.63-7.83-16.63-17.48 0-9.67 7.44-17.5 16.63-17.5 9.18 0 16.62 7.83 16.62 17.5zM1991.75 330.5c0 9.67-7.44 17.5-16.62 17.5-9.2 0-16.63-7.83-16.63-17.5 0-9.64 7.44-17.47 16.63-17.47 9.18 0 16.62 7.83 16.62 17.48z" stroke="#5e5e5e" stroke-width="3" fill="#fff"/><g fill="none"><path d="M1170 336h-10m30 20c-11.05 0-20-8.95-20-20s8.95-20 20-20" stroke="#5e5e5e" stroke-width="3"/><path d="M1190 356c-11.05 0-20-8.95-20-20s8.95-20 20-20zM1170 336a.8.8 0 0 1-.8.8h-8.4a.8.8 0 0 1-.8-.8.8.8 0 0 1 .8-.8h8.4a.8.8 0 0 1 .8.8z"/></g><g fill="none"><path d="M1170 588h-10m30 20c-11.05 0-20-8.95-20-20s8.95-20 20-20" stroke="#5e5e5e" stroke-width="3"/><path d="M1190 608c-11.05 0-20-8.95-20-20s8.95-20 20-20zM1170 588a.8.8 0 0 1-.8.8h-8.4a.8.8 0 0 1-.8-.8.8.8 0 0 1 .8-.8h8.4a.8.8 0 0 1 .8.8z"/></g><path d="M1619 280h-24.5a6 6 0 0 0-6 6v158a6 6 0 0 1-6 6h-220" stroke="#5e5e5e" stroke-width="2" fill="none"/><path d="M1620 280.98h-1.03v-1.96h1.03zM1362.53 450.98h-1.03v-1.96h1.03z" stroke="#5e5e5e" stroke-width=".05" fill="#5e5e5e"/><path d="M1896 280h-41.74" stroke="#5e5e5e" stroke-width="2" fill="none"/><path d="M1897 280.98h-1.03v-1.96h1.03zM1854.3 280.98h-1.16l.12-.98-.12-.98h1.15z" stroke="#5e5e5e" stroke-width=".05" fill="#5e5e5e"/><path d="M1851.75 280c0 9.66-7.44 17.5-16.62 17.5-9.2 0-16.63-7.84-16.63-17.5s7.44-17.5 16.63-17.5c9.18 0 16.62 7.84 16.62 17.5z" stroke="#5e5e5e" stroke-width="3" fill="#fff"/><g fill="none"><path d="M2160.5 879v-10m-20 30c0-11.05 8.95-20 20-20s20 8.95 20 20" stroke="#5e5e5e" stroke-width="3"/><path d="M2140.5 899c0-11.05 8.95-20 20-20s20 8.95 20 20zM2160.5 879a.8.8 0 0 1-.8-.8v-8.4a.8.8 0 0 1 .8-.8.8.8 0 0 1 .8.8v8.4a.8.8 0 0 1-.8.8z"/></g><g fill="none"><path d="M1630 280h-10m30 20c-11.05 0-20-8.95-20-20s8.95-20 20-20" stroke="#5e5e5e" stroke-width="3"/><path d="M1650 300c-11.05 0-20-8.95-20-20s8.95-20 20-20zM1630 280a.8.8 0 0 1-.8.8h-8.4a.8.8 0 0 1-.8-.8.8.8 0 0 1 .8-.8h8.4a.8.8 0 0 1 .8.8z"/></g><g fill="none"><path d="M1440 715.03v-10m-20 30c0-11.05 8.95-20 20-20s20 8.95 20 20" stroke="#5e5e5e" stroke-width="3"/><path d="M1420 735.03c0-11.05 8.95-20 20-20s20 8.95 20 20zM1440 715.03a.8.8 0 0 1-.8-.8v-8.4a.8.8 0 0 1 .8-.8.8.8 0 0 1 .8.8v8.4a.8.8 0 0 1-.8.8z"/></g><path d="M1440 704.02V451" stroke="#5e5e5e" stroke-width="2" stroke-linejoin="round" fill="none"/><path d="M1440.98 705.03h-1.95V704h1.95z" stroke="#5e5e5e" stroke-width=".05" fill="#5e5e5e"/><path d="M1440 451.03V450M1201 340h52.25a6 6 0 0 1 6 6v98a6 6 0 0 0 6 6h52.25M1201.03 340H1200" stroke="#5e5e5e" stroke-width="2" fill="none"/><path d="M1318.5 450.98h-1.03v-1.96h1.03z" stroke="#5e5e5e" stroke-width=".05" fill="#5e5e5e"/><path d="M1201 588h52.25a6 6 0 0 0 6-6V456a6 6 0 0 1 6-6h52.25M1201.03 588H1200" stroke="#5e5e5e" stroke-width="2" fill="none"/><path d="M1318.5 450.98h-1.03v-1.96h1.03z" stroke="#5e5e5e" stroke-width=".05" fill="#5e5e5e"/><path d="M1456.63 826.37c0 9.65-7.45 17.48-16.63 17.48s-16.63-7.83-16.63-17.5c0-9.64 7.45-17.47 16.63-17.47s16.63 7.83 16.63 17.5z" stroke="#5e5e5e" stroke-width="3" fill="#fff"/><path d="M1619 750h-24.5a6 6 0 0 1-6-6V456a6 6 0 0 0-6-6h-220" stroke="#5e5e5e" stroke-width="2" fill="none"/><path d="M1620 750.98h-1.03V749h1.03zM1362.53 450.98h-1.03v-1.96h1.03z" stroke="#5e5e5e" stroke-width=".05" fill="#5e5e5e"/><g fill="none"><path d="M1630 750h-10m30 20c-11.05 0-20-8.95-20-20s8.95-20 20-20" stroke="#5e5e5e" stroke-width="3"/><path d="M1650 770c-11.05 0-20-8.95-20-20s8.95-20 20-20zM1630 750a.8.8 0 0 1-.8.8h-8.4a.8.8 0 0 1-.8-.8.8.8 0 0 1 .8-.8h8.4a.8.8 0 0 1 .8.8z"/></g><path d="M1777.5 747.5h-41.74M1777.47 747.5h1.03" stroke="#5e5e5e" stroke-width="2" fill="none"/><path d="M1735.8 748.46h-1.16l.12-.97-.12-1h1.15z" stroke="#5e5e5e" stroke-width=".05" fill="#5e5e5e"/><path d="M1733.25 747.5c0 9.64-7.44 17.47-16.63 17.47-9.18 0-16.62-7.83-16.62-17.48 0-9.67 7.44-17.5 16.63-17.5 9.18 0 16.62 7.83 16.62 17.5z" stroke="#5e5e5e" stroke-width="3" fill="#fff"/><path d="M1440 788.86v-4.23m0-8.47v-8.47m0-8.47v-8.47m0-8.47v-8.48m0-8.47v-4.23" stroke="#5e5e5e" stroke-width="2" fill="none"/><path d="M1440 804.13l-4.63-14.27h9.27z" stroke="#5e5e5e" stroke-width="2" fill="#5e5e5e"/><path d="M1440 721.15v-4.03M1636.1 750h4.57m9.15 0h9.15m9.16 0h9.15m9.15 0h4.58M1636.12 750h-4.03" stroke="#5e5e5e" stroke-width="2" fill="none"/><path d="M1698.04 750l-12.92 7.63v-15.27z" stroke="#5e5e5e" stroke-width="2" fill="#5e5e5e"/><path d="M1636.1 280h3.9m7.8 0h7.83m7.8 0h7.83m7.8 0h7.82m7.82 0h7.8m7.82 0h7.82m7.8 0h7.83m7.8 0h7.82m7.8 0h7.82m7.82 0h7.8m7.82 0h7.82m7.8 0h3.92M1636.12 280h-4.03" stroke="#5e5e5e" stroke-width="2" fill="none"/><path d="M1815.02 280l-12.9 7.63v-15.27z" stroke="#5e5e5e" stroke-width="2" fill="#5e5e5e"/><defs><path fill="#282c33" d="M18-100v-36l175-74v27L42-118l151 64v27" id="x"/><path fill="#282c33" d="M135-143c-3-34-86-38-87 0 15 53 115 12 119 90S17 21 10-45l28-5c4 36 97 45 98 0-10-56-113-15-118-90-4-57 82-63 122-42 12 7 21 19 24 35" id="y"/><path fill="#282c33" d="M84 4C-5 8 30-112 23-190h32v120c0 31 7 50 39 49 72-2 45-101 50-169h31l1 190h-30c-1-10 1-25-2-33-11 22-28 36-60 37" id="z"/><path fill="#282c33" d="M115-194c53 0 69 39 70 98 0 66-23 100-70 100C84 3 66-7 56-30L54 0H23l1-261h32v101c10-23 28-34 59-34zm-8 174c40 0 45-34 45-75 0-40-5-75-45-74-42 0-51 32-51 76 0 43 10 73 51 73" id="A"/><path fill="#282c33" d="M24-231v-30h32v30H24zM24 0v-190h32V0H24" id="B"/><path fill="#282c33" d="M59-47c-2 24 18 29 38 22v24C64 9 27 4 27-40v-127H5v-23h24l9-43h21v43h35v23H59v120" id="C"/><path fill="#282c33" d="M100-194c63 0 86 42 84 106H49c0 40 14 67 53 68 26 1 43-12 49-29l28 8c-11 28-37 45-77 45C44 4 14-33 15-96c1-61 26-98 85-98zm52 81c6-60-76-77-97-28-3 7-6 17-6 28h103" id="D"/><path fill="#282c33" d="M210-169c-67 3-38 105-44 169h-31v-121c0-29-5-50-35-48C34-165 62-65 56 0H25l-1-190h30c1 10-1 24 2 32 10-44 99-50 107 0 11-21 27-35 58-36 85-2 47 119 55 194h-31v-121c0-29-5-49-35-48" id="E"/><path fill="#282c33" d="M141-36C126-15 110 5 73 4 37 3 15-17 15-53c-1-64 63-63 125-63 3-35-9-54-41-54-24 1-41 7-42 31l-33-3c5-37 33-52 76-52 45 0 72 20 72 64v82c-1 20 7 32 28 27v20c-31 9-61-2-59-35zM48-53c0 20 12 33 32 33 41-3 63-29 60-74-43 2-92-5-92 41" id="F"/><path fill="#282c33" d="M18-27v-27l151-64-151-65v-27l175 74v36" id="G"/><g id="a"><use transform="matrix(0.06172839506172839,0,0,0.06172839506172839,0,0)" xlink:href="#x"/><use transform="matrix(0.06172839506172839,0,0,0.06172839506172839,12.962962962962962,0)" xlink:href="#x"/><use transform="matrix(0.06172839506172839,0,0,0.06172839506172839,25.925925925925924,0)" xlink:href="#y"/><use transform="matrix(0.06172839506172839,0,0,0.06172839506172839,37.03703703703704,0)" xlink:href="#z"/><use transform="matrix(0.06172839506172839,0,0,0.06172839506172839,49.382716049382715,0)" xlink:href="#A"/><use transform="matrix(0.06172839506172839,0,0,0.06172839506172839,61.72839506172839,0)" xlink:href="#y"/><use transform="matrix(0.06172839506172839,0,0,0.06172839506172839,72.8395061728395,0)" xlink:href="#B"/><use transform="matrix(0.06172839506172839,0,0,0.06172839506172839,77.71604938271605,0)" xlink:href="#y"/><use transform="matrix(0.06172839506172839,0,0,0.06172839506172839,88.82716049382717,0)" xlink:href="#C"/><use transform="matrix(0.06172839506172839,0,0,0.06172839506172839,95,0)" xlink:href="#D"/><use transform="matrix(0.06172839506172839,0,0,0.06172839506172839,107.34567901234568,0)" xlink:href="#E"/><use transform="matrix(0.06172839506172839,0,0,0.06172839506172839,125.80246913580247,0)" xlink:href="#F"/><use transform="matrix(0.06172839506172839,0,0,0.06172839506172839,138.14814814814815,0)" xlink:href="#G"/><use transform="matrix(0.06172839506172839,0,0,0.06172839506172839,151.11111111111111,0)" xlink:href="#G"/></g><path fill="#282c33" d="M232-93c-1 65-40 97-104 97C67 4 28-28 28-90v-158h33c8 89-33 224 67 224 102 0 64-133 71-224h33v155" id="H"/><path fill="#282c33" d="M141-36C126-15 110 5 73 4 37 3 15-17 15-53c-1-64 63-63 125-63 3-35-9-54-41-54-24 1-41 7-42 31l-33-3c5-37 33-52 76-52 45 0 72 20 72 64v82c-1 20 7 32 28 27v20c-31 9-61-2-59-35zM48-53c0 20 12 33 32 33 41-3 63-29 60-74-43 2-92-5-92 41zm25-158c8-23 27-35 38-54h36v5l-58 49H73" id="I"/><path fill="#282c33" d="M114-163C36-179 61-72 57 0H25l-1-190h30c1 12-1 29 2 39 6-27 23-49 58-41v29" id="J"/><path fill="#282c33" d="M100-194c62-1 85 37 85 99 1 63-27 99-86 99S16-35 15-95c0-66 28-99 85-99zM99-20c44 1 53-31 53-75 0-43-8-75-51-75s-53 32-53 75 10 74 51 75" id="K"/><g id="b"><use transform="matrix(0.06172839506172839,0,0,0.06172839506172839,0,0)" xlink:href="#H"/><use transform="matrix(0.06172839506172839,0,0,0.06172839506172839,15.987654320987653,0)" xlink:href="#y"/><use transform="matrix(0.06172839506172839,0,0,0.06172839506172839,27.098765432098766,0)" xlink:href="#z"/><use transform="matrix(0.06172839506172839,0,0,0.06172839506172839,39.44444444444444,0)" xlink:href="#I"/><use transform="matrix(0.06172839506172839,0,0,0.06172839506172839,51.79012345679012,0)" xlink:href="#J"/><use transform="matrix(0.06172839506172839,0,0,0.06172839506172839,59.1358024691358,0)" xlink:href="#B"/><use transform="matrix(0.06172839506172839,0,0,0.06172839506172839,64.01234567901234,0)" xlink:href="#K"/></g><path fill="#282c33" d="M85-194c31 0 48 13 60 33l-1-100h32l1 261h-30c-2-10 0-23-3-31C134-8 116 4 85 4 32 4 16-35 15-94c0-66 23-100 70-100zm9 24c-40 0-46 34-46 75 0 40 6 74 45 74 42 0 51-32 51-76 0-42-9-74-50-73" id="L"/><g id="c"><use transform="matrix(0.06172839506172839,0,0,0.06172839506172839,0,0)" xlink:href="#C"/><use transform="matrix(0.06172839506172839,0,0,0.06172839506172839,6.172839506172839,0)" xlink:href="#J"/><use transform="matrix(0.06172839506172839,0,0,0.06172839506172839,13.518518518518519,0)" xlink:href="#F"/><use transform="matrix(0.06172839506172839,0,0,0.06172839506172839,25.864197530864196,0)" xlink:href="#L"/><use transform="matrix(0.06172839506172839,0,0,0.06172839506172839,38.20987654320987,0)" xlink:href="#z"/><use transform="matrix(0.06172839506172839,0,0,0.06172839506172839,50.55555555555555,0)" xlink:href="#C"/><use transform="matrix(0.06172839506172839,0,0,0.06172839506172839,56.72839506172839,0)" xlink:href="#K"/><use transform="matrix(0.06172839506172839,0,0,0.06172839506172839,69.07407407407408,0)" xlink:href="#J"/></g><path fill="#282c33" d="M106-169C34-169 62-67 57 0H25v-261h32l-1 103c12-21 28-36 61-36 89 0 53 116 60 194h-32v-121c2-32-8-49-39-48" id="M"/><path fill="#282c33" d="M100-194c62-1 85 37 85 99 1 63-27 99-86 99S16-35 15-95c0-66 28-99 85-99zM99-20c44 1 53-31 53-75 0-43-8-75-51-75s-53 32-53 75 10 74 51 75zM76-211c8-23 27-35 38-54h36v5l-58 49H76" id="N"/><path fill="#282c33" d="M96-169c-40 0-48 33-48 73s9 75 48 75c24 0 41-14 43-38l32 2c-6 37-31 61-74 61-59 0-76-41-82-99-10-93 101-131 147-64 4 7 5 14 7 22l-32 3c-4-21-16-35-41-35" id="O"/><g id="d"><use transform="matrix(0.06172839506172839,0,0,0.06172839506172839,0,0)" xlink:href="#M"/><use transform="matrix(0.06172839506172839,0,0,0.06172839506172839,12.345679012345679,0)" xlink:href="#B"/><use transform="matrix(0.06172839506172839,0,0,0.06172839506172839,17.22222222222222,0)" xlink:href="#y"/><use transform="matrix(0.06172839506172839,0,0,0.06172839506172839,28.333333333333332,0)" xlink:href="#C"/><use transform="matrix(0.06172839506172839,0,0,0.06172839506172839,34.50617283950617,0)" xlink:href="#N"/><use transform="matrix(0.06172839506172839,0,0,0.06172839506172839,46.85185185185185,0)" xlink:href="#J"/><use transform="matrix(0.06172839506172839,0,0,0.06172839506172839,54.197530864197525,0)" xlink:href="#B"/><use transform="matrix(0.06172839506172839,0,0,0.06172839506172839,59.07407407407407,0)" xlink:href="#O"/><use transform="matrix(0.06172839506172839,0,0,0.06172839506172839,70.18518518518518,0)" xlink:href="#K"/></g><path fill="#282c33" d="M205 0l-28-72H64L36 0H1l101-248h38L239 0h-34zm-38-99l-47-123c-12 45-31 82-46 123h93" id="P"/><path fill="#282c33" d="M117-194c89-4 53 116 60 194h-32v-121c0-31-8-49-39-48C34-167 62-67 57 0H25l-1-190h30c1 10-1 24 2 32 11-22 29-35 61-36" id="Q"/><path fill="#282c33" d="M24 0v-261h32V0H24" id="R"/><g id="e"><use transform="matrix(0.06172839506172839,0,0,0.06172839506172839,0,0)" xlink:href="#P"/><use transform="matrix(0.06172839506172839,0,0,0.06172839506172839,14.814814814814813,0)" xlink:href="#Q"/><use transform="matrix(0.06172839506172839,0,0,0.06172839506172839,27.160493827160494,0)" xlink:href="#I"/><use transform="matrix(0.06172839506172839,0,0,0.06172839506172839,39.50617283950617,0)" xlink:href="#R"/><use transform="matrix(0.06172839506172839,0,0,0.06172839506172839,44.382716049382715,0)" xlink:href="#B"/><use transform="matrix(0.06172839506172839,0,0,0.06172839506172839,49.25925925925926,0)" xlink:href="#y"/><use transform="matrix(0.06172839506172839,0,0,0.06172839506172839,60.37037037037037,0)" xlink:href="#D"/></g><path fill="#282c33" d="M33-154v-36h34v36H33zM33 0v-36h34V0H33" id="S"/><path fill="#282c33" d="M30 0v-248h187v28H63v79h144v27H63v87h162V0H30" id="T"/><g id="f"><use transform="matrix(0.06172839506172839,0,0,0.06172839506172839,0,0)" xlink:href="#S"/><use transform="matrix(0.06172839506172839,0,0,0.06172839506172839,6.172839506172839,0)" xlink:href="#T"/><use transform="matrix(0.06172839506172839,0,0,0.06172839506172839,20.98765432098765,0)" xlink:href="#Q"/><use transform="matrix(0.06172839506172839,0,0,0.06172839506172839,33.33333333333333,0)" xlink:href="#C"/><use transform="matrix(0.06172839506172839,0,0,0.06172839506172839,39.50617283950617,0)" xlink:href="#J"/><use transform="matrix(0.06172839506172839,0,0,0.06172839506172839,46.85185185185185,0)" xlink:href="#F"/><use transform="matrix(0.06172839506172839,0,0,0.06172839506172839,59.197530864197525,0)" xlink:href="#L"/><use transform="matrix(0.06172839506172839,0,0,0.06172839506172839,71.5432098765432,0)" xlink:href="#F"/></g><g id="g"><use transform="matrix(0.06172839506172839,0,0,0.06172839506172839,0,0)" xlink:href="#L"/><use transform="matrix(0.06172839506172839,0,0,0.06172839506172839,12.345679012345679,0)" xlink:href="#D"/></g><path fill="#282c33" d="M127-220V0H93v-220H8v-28h204v28h-85" id="U"/><path fill="#282c33" d="M141 0L90-78 38 0H4l68-98-65-92h35l48 74 47-74h35l-64 92 68 98h-35" id="V"/><g id="h"><use transform="matrix(0.06172839506172839,0,0,0.06172839506172839,0,0)" xlink:href="#U"/><use transform="matrix(0.06172839506172839,0,0,0.06172839506172839,11.049382716049381,0)" xlink:href="#D"/><use transform="matrix(0.06172839506172839,0,0,0.06172839506172839,23.39506172839506,0)" xlink:href="#V"/><use transform="matrix(0.06172839506172839,0,0,0.06172839506172839,34.50617283950617,0)" xlink:href="#C"/><use transform="matrix(0.06172839506172839,0,0,0.06172839506172839,40.67901234567901,0)" xlink:href="#K"/></g><path fill="#282c33" d="M145-31C134-9 116 4 85 4 32 4 16-35 15-94c0-59 17-99 70-100 32-1 48 14 60 33 0-11-1-24 2-32h30l-1 268h-32zM93-21c41 0 51-33 51-76s-8-73-50-73c-40 0-46 35-46 75s5 74 45 74" id="W"/><path fill="#282c33" d="M108 0H70L1-190h34L89-25l56-165h34" id="X"/><g id="i"><use transform="matrix(0.06172839506172839,0,0,0.06172839506172839,0,0)" xlink:href="#P"/><use transform="matrix(0.06172839506172839,0,0,0.06172839506172839,14.814814814814813,0)" xlink:href="#J"/><use transform="matrix(0.06172839506172839,0,0,0.06172839506172839,22.160493827160494,0)" xlink:href="#W"/><use transform="matrix(0.06172839506172839,0,0,0.06172839506172839,34.50617283950617,0)" xlink:href="#z"/><use transform="matrix(0.06172839506172839,0,0,0.06172839506172839,46.85185185185185,0)" xlink:href="#B"/><use transform="matrix(0.06172839506172839,0,0,0.06172839506172839,51.72839506172839,0)" xlink:href="#X"/><use transform="matrix(0.06172839506172839,0,0,0.06172839506172839,62.839506172839506,0)" xlink:href="#K"/></g><path fill="#282c33" d="M9 0v-24l116-142H16v-24h144v24L44-24h123V0H9" id="Y"/><g id="j"><use transform="matrix(0.06172839506172839,0,0,0.06172839506172839,0,0)" xlink:href="#S"/><use transform="matrix(0.06172839506172839,0,0,0.06172839506172839,6.172839506172839,0)" xlink:href="#C"/><use transform="matrix(0.06172839506172839,0,0,0.06172839506172839,12.345679012345679,0)" xlink:href="#J"/><use transform="matrix(0.06172839506172839,0,0,0.06172839506172839,19.691358024691358,0)" xlink:href="#F"/><use transform="matrix(0.06172839506172839,0,0,0.06172839506172839,32.03703703703704,0)" xlink:href="#L"/><use transform="matrix(0.06172839506172839,0,0,0.06172839506172839,44.382716049382715,0)" xlink:href="#z"/><use transform="matrix(0.06172839506172839,0,0,0.06172839506172839,56.72839506172839,0)" xlink:href="#Y"/><use transform="matrix(0.06172839506172839,0,0,0.06172839506172839,67.8395061728395,0)" xlink:href="#B"/><use transform="matrix(0.06172839506172839,0,0,0.06172839506172839,72.71604938271605,0)" xlink:href="#J"/></g><path fill="#282c33" d="M63-220v92h138v28H63V0H30v-248h175v28H63" id="Z"/><g id="k"><use transform="matrix(0.06172839506172839,0,0,0.06172839506172839,0,0)" xlink:href="#S"/><use transform="matrix(0.06172839506172839,0,0,0.06172839506172839,6.172839506172839,0)" xlink:href="#Z"/><use transform="matrix(0.06172839506172839,0,0,0.06172839506172839,19.691358024691358,0)" xlink:href="#J"/><use transform="matrix(0.06172839506172839,0,0,0.06172839506172839,27.037037037037038,0)" xlink:href="#D"/><use transform="matrix(0.06172839506172839,0,0,0.06172839506172839,39.382716049382715,0)" xlink:href="#W"/><use transform="matrix(0.06172839506172839,0,0,0.06172839506172839,51.72839506172839,0)" xlink:href="#z"/><use transform="matrix(0.06172839506172839,0,0,0.06172839506172839,64.07407407407408,0)" xlink:href="#D"/><use transform="matrix(0.06172839506172839,0,0,0.06172839506172839,76.41975308641976,0)" xlink:href="#Q"/><use transform="matrix(0.06172839506172839,0,0,0.06172839506172839,88.76543209876544,0)" xlink:href="#O"/><use transform="matrix(0.06172839506172839,0,0,0.06172839506172839,99.87654320987656,0)" xlink:href="#B"/><use transform="matrix(0.06172839506172839,0,0,0.06172839506172839,104.7530864197531,0)" xlink:href="#F"/></g><g id="l"><use transform="matrix(0.06172839506172839,0,0,0.06172839506172839,0,0)" xlink:href="#L"/><use transform="matrix(0.06172839506172839,0,0,0.06172839506172839,12.345679012345679,0)" xlink:href="#D"/></g><path fill="#282c33" d="M30-248c87 1 191-15 191 75 0 78-77 80-158 76V0H30v-248zm33 125c57 0 124 11 124-50 0-59-68-47-124-48v98" id="aa"/><g id="m"><use transform="matrix(0.06172839506172839,0,0,0.06172839506172839,0,0)" xlink:href="#aa"/><use transform="matrix(0.06172839506172839,0,0,0.06172839506172839,14.814814814814813,0)" xlink:href="#F"/><use transform="matrix(0.06172839506172839,0,0,0.06172839506172839,27.160493827160494,0)" xlink:href="#R"/><use transform="matrix(0.06172839506172839,0,0,0.06172839506172839,32.03703703703704,0)" xlink:href="#F"/><use transform="matrix(0.06172839506172839,0,0,0.06172839506172839,44.382716049382715,0)" xlink:href="#X"/><use transform="matrix(0.06172839506172839,0,0,0.06172839506172839,55.49382716049382,0)" xlink:href="#J"/><use transform="matrix(0.06172839506172839,0,0,0.06172839506172839,62.8395061728395,0)" xlink:href="#F"/><use transform="matrix(0.06172839506172839,0,0,0.06172839506172839,75.18518518518518,0)" xlink:href="#y"/></g><path fill="#282c33" d="M30 0v-248h33v221h125V0H30" id="ab"/><path fill="#282c33" d="M177-190C167-65 218 103 67 71c-23-6-38-20-44-43l32-5c15 47 100 32 89-28v-30C133-14 115 1 83 1 29 1 15-40 15-95c0-56 16-97 71-98 29-1 48 16 59 35 1-10 0-23 2-32h30zM94-22c36 0 50-32 50-73 0-42-14-75-50-75-39 0-46 34-46 75s6 73 46 73" id="ac"/><g id="n"><use transform="matrix(0.06172839506172839,0,0,0.06172839506172839,0,0)" xlink:href="#S"/><use transform="matrix(0.06172839506172839,0,0,0.06172839506172839,6.172839506172839,0)" xlink:href="#ab"/><use transform="matrix(0.06172839506172839,0,0,0.06172839506172839,18.51851851851852,0)" xlink:href="#B"/><use transform="matrix(0.06172839506172839,0,0,0.06172839506172839,23.395061728395063,0)" xlink:href="#y"/><use transform="matrix(0.06172839506172839,0,0,0.06172839506172839,34.50617283950618,0)" xlink:href="#C"/><use transform="matrix(0.06172839506172839,0,0,0.06172839506172839,40.67901234567902,0)" xlink:href="#F"/><use transform="matrix(0.06172839506172839,0,0,0.06172839506172839,53.0246913580247,0)" xlink:href="#ac"/><use transform="matrix(0.06172839506172839,0,0,0.06172839506172839,65.37037037037038,0)" xlink:href="#D"/><use transform="matrix(0.06172839506172839,0,0,0.06172839506172839,77.71604938271606,0)" xlink:href="#E"/></g><g id="o"><use transform="matrix(0.06172839506172839,0,0,0.06172839506172839,0,0)" xlink:href="#E"/><use transform="matrix(0.06172839506172839,0,0,0.06172839506172839,18.456790123456788,0)" xlink:href="#F"/><use transform="matrix(0.06172839506172839,0,0,0.06172839506172839,30.80246913580247,0)" xlink:href="#B"/><use transform="matrix(0.06172839506172839,0,0,0.06172839506172839,35.67901234567901,0)" xlink:href="#y"/></g><g id="p"><use transform="matrix(0.06172839506172839,0,0,0.06172839506172839,0,0)" xlink:href="#J"/><use transform="matrix(0.06172839506172839,0,0,0.06172839506172839,7.345679012345679,0)" xlink:href="#D"/><use transform="matrix(0.06172839506172839,0,0,0.06172839506172839,19.691358024691358,0)" xlink:href="#O"/><use transform="matrix(0.06172839506172839,0,0,0.06172839506172839,30.80246913580247,0)" xlink:href="#D"/><use transform="matrix(0.06172839506172839,0,0,0.06172839506172839,43.148148148148145,0)" xlink:href="#Q"/><use transform="matrix(0.06172839506172839,0,0,0.06172839506172839,55.49382716049382,0)" xlink:href="#C"/><use transform="matrix(0.06172839506172839,0,0,0.06172839506172839,61.666666666666664,0)" xlink:href="#D"/></g><path fill="#282c33" d="M212-179c-10-28-35-45-73-45-59 0-87 40-87 99 0 60 29 101 89 101 43 0 62-24 78-52l27 14C228-24 195 4 139 4 59 4 22-46 18-125c-6-104 99-153 187-111 19 9 31 26 39 46" id="ad"/><path fill="#282c33" d="M96-169c-40 0-48 33-48 73s9 75 48 75c24 0 41-14 43-38l32 2c-6 37-31 61-74 61-59 0-76-41-82-99-10-93 101-131 147-64 4 7 5 14 7 22l-32 3c-4-21-16-35-41-35zm3 187c19-1 33 8 33 26 0 31-30 33-64 32V58c18 2 39 4 41-13 1-15-18-13-34-13L87 0h19" id="ae"/><path fill="#282c33" d="M141-36C126-15 110 5 73 4 37 3 15-17 15-53c-1-64 63-63 125-63 3-35-9-54-41-54-24 1-41 7-42 31l-33-3c5-37 33-52 76-52 45 0 72 20 72 64v82c-1 20 7 32 28 27v20c-31 9-61-2-59-35zM48-53c0 20 12 33 32 33 41-3 63-29 60-74-43 2-92-5-92 41zm117-205c-3 23-9 48-36 47-26-1-65-44-74 0H39c4-23 8-48 36-47s64 44 74 0h16" id="af"/><g id="q"><use transform="matrix(0.06172839506172839,0,0,0.06172839506172839,0,0)" xlink:href="#ad"/><use transform="matrix(0.06172839506172839,0,0,0.06172839506172839,15.987654320987653,0)" xlink:href="#K"/><use transform="matrix(0.06172839506172839,0,0,0.06172839506172839,28.333333333333332,0)" xlink:href="#J"/><use transform="matrix(0.06172839506172839,0,0,0.06172839506172839,35.67901234567901,0)" xlink:href="#J"/><use transform="matrix(0.06172839506172839,0,0,0.06172839506172839,43.02469135802469,0)" xlink:href="#D"/><use transform="matrix(0.06172839506172839,0,0,0.06172839506172839,55.37037037037037,0)" xlink:href="#ae"/><use transform="matrix(0.06172839506172839,0,0,0.06172839506172839,66.48148148148148,0)" xlink:href="#af"/><use transform="matrix(0.06172839506172839,0,0,0.06172839506172839,78.82716049382717,0)" xlink:href="#K"/></g><g id="r"><use transform="matrix(0.06172839506172839,0,0,0.06172839506172839,0,0)" xlink:href="#P"/><use transform="matrix(0.06172839506172839,0,0,0.06172839506172839,14.814814814814813,0)" xlink:href="#z"/><use transform="matrix(0.06172839506172839,0,0,0.06172839506172839,27.160493827160494,0)" xlink:href="#C"/><use transform="matrix(0.06172839506172839,0,0,0.06172839506172839,33.333333333333336,0)" xlink:href="#K"/><use transform="matrix(0.06172839506172839,0,0,0.06172839506172839,45.67901234567901,0)" xlink:href="#E"/><use transform="matrix(0.06172839506172839,0,0,0.06172839506172839,64.1358024691358,0)" xlink:href="#I"/><use transform="matrix(0.06172839506172839,0,0,0.06172839506172839,76.48148148148148,0)" xlink:href="#C"/><use transform="matrix(0.06172839506172839,0,0,0.06172839506172839,82.65432098765432,0)" xlink:href="#B"/><use transform="matrix(0.06172839506172839,0,0,0.06172839506172839,87.53086419753086,0)" xlink:href="#O"/><use transform="matrix(0.06172839506172839,0,0,0.06172839506172839,98.64197530864197,0)" xlink:href="#F"/></g><path fill="#282c33" d="M185-189c-5-48-123-54-124 2 14 75 158 14 163 119 3 78-121 87-175 55-17-10-28-26-33-46l33-7c5 56 141 63 141-1 0-78-155-14-162-118-5-82 145-84 179-34 5 7 8 16 11 25" id="ag"/><g id="s"><use transform="matrix(0.06172839506172839,0,0,0.06172839506172839,0,0)" xlink:href="#ag"/><use transform="matrix(0.06172839506172839,0,0,0.06172839506172839,14.814814814814813,0)" xlink:href="#z"/><use transform="matrix(0.06172839506172839,0,0,0.06172839506172839,27.160493827160494,0)" xlink:href="#ac"/><use transform="matrix(0.06172839506172839,0,0,0.06172839506172839,39.50617283950617,0)" xlink:href="#D"/><use transform="matrix(0.06172839506172839,0,0,0.06172839506172839,51.85185185185185,0)" xlink:href="#y"/><use transform="matrix(0.06172839506172839,0,0,0.06172839506172839,62.96296296296296,0)" xlink:href="#C"/><use transform="matrix(0.06172839506172839,0,0,0.06172839506172839,69.1358024691358,0)" xlink:href="#af"/><use transform="matrix(0.06172839506172839,0,0,0.06172839506172839,81.48148148148148,0)" xlink:href="#K"/></g><path fill="#282c33" d="M100-194c62-1 85 37 85 99 1 63-27 99-86 99S16-35 15-95c0-66 28-99 85-99zM99-20c44 1 53-31 53-75 0-43-8-75-51-75s-53 32-53 75 10 74 51 75zm20-242c12 18 30 30 39 51-31 2-38-20-57-30-20 10-27 32-59 30 9-22 29-33 41-51h36" id="ah"/><g id="t"><use transform="matrix(0.06172839506172839,0,0,0.06172839506172839,0,0)" xlink:href="#ag"/><use transform="matrix(0.06172839506172839,0,0,0.06172839506172839,14.814814814814813,0)" xlink:href="#B"/><use transform="matrix(0.06172839506172839,0,0,0.06172839506172839,19.691358024691354,0)" xlink:href="#Q"/><use transform="matrix(0.06172839506172839,0,0,0.06172839506172839,32.03703703703703,0)" xlink:href="#ah"/><use transform="matrix(0.06172839506172839,0,0,0.06172839506172839,44.38271604938271,0)" xlink:href="#Q"/><use transform="matrix(0.06172839506172839,0,0,0.06172839506172839,56.728395061728385,0)" xlink:href="#B"/><use transform="matrix(0.06172839506172839,0,0,0.06172839506172839,61.60493827160493,0)" xlink:href="#E"/><use transform="matrix(0.06172839506172839,0,0,0.06172839506172839,80.06172839506172,0)" xlink:href="#K"/><use transform="matrix(0.06172839506172839,0,0,0.06172839506172839,92.4074074074074,0)" xlink:href="#y"/></g><path fill="#282c33" d="M33 0v-248h34V0H33" id="ai"/><path fill="#282c33" d="M101-234c-31-9-42 10-38 44h38v23H63V0H32v-167H5v-23h27c-7-52 17-82 69-68v24" id="aj"/><g id="u"><use transform="matrix(0.06172839506172839,0,0,0.06172839506172839,0,0)" xlink:href="#ai"/><use transform="matrix(0.06172839506172839,0,0,0.06172839506172839,6.172839506172839,0)" xlink:href="#L"/><use transform="matrix(0.06172839506172839,0,0,0.06172839506172839,18.51851851851852,0)" xlink:href="#D"/><use transform="matrix(0.06172839506172839,0,0,0.06172839506172839,30.864197530864196,0)" xlink:href="#Q"/><use transform="matrix(0.06172839506172839,0,0,0.06172839506172839,43.20987654320987,0)" xlink:href="#C"/><use transform="matrix(0.06172839506172839,0,0,0.06172839506172839,49.382716049382715,0)" xlink:href="#B"/><use transform="matrix(0.06172839506172839,0,0,0.06172839506172839,54.25925925925926,0)" xlink:href="#aj"/><use transform="matrix(0.06172839506172839,0,0,0.06172839506172839,60.4320987654321,0)" xlink:href="#B"/><use transform="matrix(0.06172839506172839,0,0,0.06172839506172839,65.30864197530865,0)" xlink:href="#O"/><use transform="matrix(0.06172839506172839,0,0,0.06172839506172839,76.41975308641976,0)" xlink:href="#F"/><use transform="matrix(0.06172839506172839,0,0,0.06172839506172839,88.76543209876544,0)" xlink:href="#ae"/><use transform="matrix(0.06172839506172839,0,0,0.06172839506172839,99.87654320987656,0)" xlink:href="#af"/><use transform="matrix(0.06172839506172839,0,0,0.06172839506172839,112.22222222222224,0)" xlink:href="#K"/></g><g id="v"><use transform="matrix(0.06172839506172839,0,0,0.06172839506172839,0,0)" xlink:href="#L"/><use transform="matrix(0.06172839506172839,0,0,0.06172839506172839,12.345679012345679,0)" xlink:href="#K"/></g><g id="w"><use transform="matrix(0.06172839506172839,0,0,0.06172839506172839,0,0)" xlink:href="#B"/><use transform="matrix(0.06172839506172839,0,0,0.06172839506172839,4.876543209876543,0)" xlink:href="#L"/><use transform="matrix(0.06172839506172839,0,0,0.06172839506172839,17.22222222222222,0)" xlink:href="#B"/><use transform="matrix(0.06172839506172839,0,0,0.06172839506172839,22.098765432098766,0)" xlink:href="#K"/><use transform="matrix(0.06172839506172839,0,0,0.06172839506172839,34.44444444444444,0)" xlink:href="#E"/><use transform="matrix(0.06172839506172839,0,0,0.06172839506172839,52.90123456790123,0)" xlink:href="#F"/></g></defs></g></svg>