<svg xmlns="http://www.w3.org/2000/svg" xmlns:xlink="http://www.w3.org/1999/xlink" width="100" zoomAndPan="magnify" viewBox="0 0 75 30.000001" height="40" preserveAspectRatio="xMidYMid meet" version="1.0"><defs><g/><clipPath id="76304f2f4a"><path d="M 1.210938 0 L 73.789062 0 L 73.789062 29.03125 L 1.210938 29.03125 Z M 1.210938 0 " clip-rule="nonzero"/></clipPath><clipPath id="b8932d6adc"><path d="M 4.113281 8 L 10 8 L 10 14 L 4.113281 14 Z M 4.113281 8 " clip-rule="nonzero"/></clipPath><clipPath id="8d69ed7a32"><path d="M 9 12 L 15 12 L 15 18.433594 L 9 18.433594 Z M 9 12 " clip-rule="nonzero"/></clipPath><clipPath id="4116780534"><path d="M 11 7.546875 L 15 7.546875 L 15 12 L 11 12 Z M 11 7.546875 " clip-rule="nonzero"/></clipPath><clipPath id="6b36beda55"><path d="M 4.113281 14 L 8 14 L 8 18.433594 L 4.113281 18.433594 Z M 4.113281 14 " clip-rule="nonzero"/></clipPath></defs><g clip-path="url(#76304f2f4a)"><path fill="#ffffff" d="M 1.210938 0 L 73.789062 0 L 73.789062 29.03125 L 1.210938 29.03125 Z M 1.210938 0 " fill-opacity="1" fill-rule="nonzero"/><path fill="#ffffff" d="M 1.210938 0 L 73.789062 0 L 73.789062 29.03125 L 1.210938 29.03125 Z M 1.210938 0 " fill-opacity="1" fill-rule="nonzero"/></g><g fill="#183e72" fill-opacity="1"><g transform="translate(16.259258, 15.432181)"><g><path d="M 6.875 -1.578125 C 6.84375 -2.1875 6.78125 -2.8125 6.71875 -3.421875 L 6.671875 -3.859375 C 6.59375 -4.609375 6.453125 -5.203125 6.21875 -5.71875 C 6.09375 -6 5.890625 -6.1875 5.640625 -6.234375 C 5.40625 -6.28125 5.15625 -6.1875 4.921875 -5.984375 C 4.796875 -5.859375 4.6875 -5.71875 4.609375 -5.59375 C 4.4375 -5.296875 4.28125 -5.015625 4.15625 -4.75 C 4.046875 -4.5 3.953125 -4.25 3.859375 -4 C 3.8125 -3.875 3.765625 -3.75 3.71875 -3.640625 L 3.65625 -3.46875 L 3.5625 -3.625 C 3.5 -3.75 3.4375 -3.875 3.375 -4 C 3.234375 -4.28125 3.09375 -4.53125 2.9375 -4.78125 C 2.671875 -5.1875 2.453125 -5.453125 2.21875 -5.671875 C 2.078125 -5.796875 1.921875 -5.859375 1.765625 -5.859375 C 1.734375 -5.859375 1.6875 -5.859375 1.65625 -5.859375 C 1.46875 -5.8125 1.296875 -5.6875 1.1875 -5.484375 C 1.046875 -5.234375 0.953125 -4.96875 0.890625 -4.71875 C 0.6875 -3.578125 0.484375 -2.453125 0.296875 -1.359375 C 0.265625 -1.125 0.265625 -0.84375 0.296875 -0.53125 C 0.34375 -0.234375 0.578125 0 0.875 0 C 1.171875 0.015625 1.40625 -0.171875 1.484375 -0.484375 C 1.53125 -0.640625 1.546875 -0.828125 1.578125 -1 C 1.625 -1.515625 1.671875 -2.046875 1.734375 -2.5625 C 1.78125 -2.9375 1.8125 -3.3125 1.84375 -3.6875 C 1.859375 -3.78125 1.875 -3.890625 1.890625 -3.984375 L 1.9375 -4.28125 L 2.046875 -4.171875 C 2.140625 -4.09375 2.1875 -4.015625 2.21875 -3.9375 C 2.28125 -3.796875 2.34375 -3.640625 2.40625 -3.484375 C 2.53125 -3.1875 2.671875 -2.875 2.8125 -2.5625 C 2.9375 -2.296875 3.0625 -2.015625 3.234375 -1.78125 C 3.375 -1.578125 3.578125 -1.46875 3.8125 -1.46875 C 4.03125 -1.484375 4.234375 -1.625 4.375 -1.84375 C 4.46875 -2.015625 4.546875 -2.21875 4.609375 -2.40625 L 4.625 -2.4375 C 4.75 -2.765625 4.859375 -3.109375 4.984375 -3.4375 C 5.046875 -3.640625 5.109375 -3.828125 5.1875 -4.015625 C 5.203125 -4.078125 5.21875 -4.125 5.25 -4.171875 L 5.34375 -4.390625 L 5.421875 -4.234375 C 5.46875 -4.125 5.484375 -4.03125 5.484375 -3.9375 C 5.484375 -3.78125 5.484375 -3.609375 5.484375 -3.453125 C 5.46875 -3.125 5.46875 -2.765625 5.484375 -2.421875 C 5.53125 -1.78125 5.59375 -1.234375 5.6875 -0.75 C 5.765625 -0.421875 6.03125 -0.28125 6.25 -0.296875 C 6.53125 -0.296875 6.734375 -0.484375 6.8125 -0.765625 C 6.875 -1.046875 6.90625 -1.328125 6.875 -1.578125 Z M 6.875 -1.578125 "/></g></g></g><g fill="#183e72" fill-opacity="1"><g transform="translate(23.438895, 15.432181)"><g><path d="M 3.390625 -3.71875 C 3.109375 -3.859375 2.8125 -3.75 2.59375 -3.421875 C 2.359375 -3.046875 2.140625 -2.671875 1.921875 -2.28125 C 1.828125 -2.140625 1.734375 -1.984375 1.625 -1.78125 C 1.546875 -1.9375 1.484375 -2.03125 1.4375 -2.140625 C 1.265625 -2.5 1.125 -2.859375 0.953125 -3.21875 C 0.875 -3.390625 0.75 -3.546875 0.515625 -3.484375 C 0.3125 -3.4375 0.265625 -3.25 0.28125 -3.0625 C 0.296875 -2.765625 0.28125 -2.4375 0.375 -2.140625 C 0.5625 -1.609375 0.78125 -1.09375 1.03125 -0.59375 C 1.09375 -0.4375 1.078125 -0.328125 1.015625 -0.1875 C 0.84375 0.203125 0.65625 0.59375 0.5 1 C 0.453125 1.15625 0.421875 1.34375 0.421875 1.515625 C 0.421875 1.734375 0.515625 1.921875 0.734375 1.96875 C 0.890625 2 1.109375 1.96875 1.265625 1.890625 C 1.40625 1.828125 1.5 1.65625 1.578125 1.5 C 2.09375 0.515625 2.609375 -0.484375 3.109375 -1.484375 C 3.328125 -1.953125 3.5 -2.4375 3.671875 -2.921875 C 3.78125 -3.296875 3.65625 -3.59375 3.390625 -3.71875 Z M 3.390625 -3.71875 "/></g></g></g><g fill="#183e72" fill-opacity="1"><g transform="translate(27.433358, 15.432181)"><g/></g></g><g fill="#183e72" fill-opacity="1"><g transform="translate(29.564232, 15.432181)"><g><path d="M 4.203125 -5.46875 C 4.15625 -5.484375 4.09375 -5.5 4.015625 -5.5 C 3.765625 -5.53125 3.515625 -5.546875 3.265625 -5.546875 C 2.75 -5.546875 2.234375 -5.5 1.75 -5.4375 C 1.4375 -5.40625 1.109375 -5.359375 0.796875 -5.34375 C 0.78125 -5.34375 0.78125 -5.34375 0.765625 -5.34375 L 0.75 -5.328125 C 0.4375 -5.234375 0.265625 -5.046875 0.28125 -4.796875 C 0.28125 -4.546875 0.453125 -4.375 0.765625 -4.3125 C 0.84375 -4.296875 0.90625 -4.28125 1 -4.28125 C 1.171875 -4.25 1.34375 -4.234375 1.5 -4.21875 L 1.75 -4.1875 L 1.765625 -4.0625 C 1.765625 -4.03125 1.765625 -4 1.765625 -3.96875 C 1.765625 -3.703125 1.75 -3.4375 1.75 -3.1875 C 1.734375 -2.546875 1.71875 -1.890625 1.71875 -1.25 C 1.71875 -1.015625 1.765625 -0.765625 1.859375 -0.53125 C 1.9375 -0.296875 2.140625 -0.171875 2.40625 -0.171875 C 2.671875 -0.171875 2.875 -0.296875 2.96875 -0.546875 C 3.03125 -0.734375 3.078125 -0.9375 3.0625 -1.109375 C 3.046875 -1.609375 3 -2.078125 2.953125 -2.5 C 2.90625 -2.875 2.859375 -3.25 2.8125 -3.640625 C 2.78125 -3.828125 2.75 -4.015625 2.734375 -4.1875 L 2.71875 -4.28125 L 3.40625 -4.28125 C 3.46875 -4.28125 3.546875 -4.28125 3.625 -4.28125 C 3.78125 -4.28125 3.953125 -4.28125 4.109375 -4.28125 C 4.421875 -4.3125 4.65625 -4.53125 4.6875 -4.828125 C 4.71875 -5.109375 4.53125 -5.359375 4.203125 -5.46875 Z M 4.203125 -5.46875 "/></g></g></g><g fill="#183e72" fill-opacity="1"><g transform="translate(34.538748, 15.432181)"><g><path d="M 3.328125 -2.953125 C 3.234375 -3.265625 3 -3.484375 2.703125 -3.640625 C 2.234375 -3.875 1.765625 -3.859375 1.296875 -3.609375 C 1.234375 -3.765625 1.203125 -3.9375 1.109375 -4.03125 C 1.015625 -4.15625 0.84375 -4.265625 0.703125 -4.25 C 0.578125 -4.25 0.453125 -4.078125 0.34375 -3.96875 C 0.296875 -3.90625 0.296875 -3.78125 0.296875 -3.703125 C 0.28125 -2.8125 0.28125 -1.921875 0.28125 -1.046875 C 0.265625 -0.953125 0.296875 -0.859375 0.3125 -0.765625 C 0.390625 -0.40625 0.671875 -0.1875 1.03125 -0.203125 C 1.359375 -0.234375 1.625 -0.484375 1.65625 -0.84375 C 1.671875 -1.015625 1.625 -1.1875 1.65625 -1.34375 C 1.75 -1.703125 1.84375 -2.0625 1.96875 -2.40625 C 2.03125 -2.59375 2.1875 -2.640625 2.375 -2.546875 C 2.53125 -2.46875 2.671875 -2.375 2.828125 -2.375 C 2.96875 -2.359375 3.171875 -2.390625 3.265625 -2.484375 C 3.34375 -2.59375 3.375 -2.8125 3.328125 -2.953125 Z M 3.328125 -2.953125 "/></g></g></g><g fill="#183e72" fill-opacity="1"><g transform="translate(38.169402, 15.432181)"><g><path d="M 3.8125 -1.484375 C 3.703125 -2 3.625 -2.53125 3.515625 -3.046875 C 3.46875 -3.203125 3.421875 -3.421875 3.3125 -3.515625 C 2.953125 -3.796875 2.5625 -4.03125 2.0625 -3.953125 C 1.1875 -3.796875 0.34375 -2.84375 0.28125 -1.921875 C 0.203125 -1.0625 0.890625 -0.46875 1.734375 -0.671875 C 1.953125 -0.734375 2.171875 -0.859375 2.375 -0.953125 C 2.453125 -1 2.515625 -1.046875 2.578125 -1.109375 C 2.625 -1.046875 2.65625 -1.03125 2.671875 -0.984375 C 2.921875 -0.609375 3.234375 -0.46875 3.53125 -0.59375 C 3.828125 -0.734375 3.90625 -1.046875 3.8125 -1.484375 Z M 1.65625 -1.75 C 1.578125 -1.71875 1.46875 -1.703125 1.390625 -1.75 C 1.34375 -1.765625 1.34375 -1.921875 1.375 -2 C 1.53125 -2.453125 1.796875 -2.828125 2.296875 -3.03125 C 2.375 -2.46875 2.109375 -1.921875 1.65625 -1.75 Z M 1.65625 -1.75 "/></g></g></g><g fill="#183e72" fill-opacity="1"><g transform="translate(42.304933, 15.432181)"><g><path d="M 3.421875 -3.203125 C 3 -3.765625 2.359375 -3.859375 1.796875 -3.453125 C 1.640625 -3.328125 1.484375 -3.1875 1.3125 -3.046875 C 1.28125 -3.109375 1.265625 -3.140625 1.25 -3.1875 C 1.1875 -3.421875 1.078125 -3.625 0.796875 -3.625 C 0.5 -3.609375 0.421875 -3.359375 0.390625 -3.125 C 0.34375 -2.4375 0.296875 -1.765625 0.28125 -1.078125 C 0.265625 -0.703125 0.515625 -0.4375 0.84375 -0.40625 C 1.171875 -0.359375 1.453125 -0.578125 1.53125 -0.953125 C 1.65625 -1.484375 1.9375 -1.921875 2.265625 -2.328125 C 2.328125 -2.390625 2.390625 -2.4375 2.5 -2.53125 C 2.53125 -2.34375 2.5625 -2.21875 2.578125 -2.078125 C 2.625 -1.734375 2.65625 -1.375 2.734375 -1.03125 C 2.8125 -0.734375 3.0625 -0.578125 3.328125 -0.59375 C 3.5625 -0.59375 3.796875 -0.78125 3.84375 -1.078125 C 3.953125 -1.828125 3.890625 -2.5625 3.421875 -3.203125 Z M 3.421875 -3.203125 "/></g></g></g><g fill="#183e72" fill-opacity="1"><g transform="translate(46.477586, 15.432181)"><g><path d="M 2.828125 -2.140625 C 2.546875 -2.40625 2.171875 -2.5625 1.828125 -2.78125 C 1.734375 -2.828125 1.625 -2.875 1.5 -2.9375 C 1.765625 -3.25 2.03125 -3.296875 2.375 -3.109375 C 2.546875 -3.015625 2.71875 -2.953125 2.84375 -3.09375 C 2.953125 -3.203125 3 -3.40625 2.984375 -3.546875 C 2.953125 -3.90625 2.703125 -4.140625 2.359375 -4.25 C 1.640625 -4.46875 0.75 -4.109375 0.421875 -3.453125 C 0.1875 -3 0.21875 -2.53125 0.59375 -2.203125 C 0.84375 -2 1.15625 -1.875 1.453125 -1.734375 C 1.625 -1.640625 1.796875 -1.609375 1.984375 -1.53125 C 1.96875 -1.5 1.96875 -1.484375 1.953125 -1.4375 C 1.71875 -1.46875 1.484375 -1.484375 1.265625 -1.515625 C 0.921875 -1.546875 0.65625 -1.4375 0.546875 -1.203125 C 0.4375 -0.953125 0.5 -0.609375 0.78125 -0.453125 C 1.015625 -0.296875 1.296875 -0.171875 1.5625 -0.15625 C 1.859375 -0.140625 2.171875 -0.21875 2.453125 -0.3125 C 3.328125 -0.640625 3.515625 -1.515625 2.828125 -2.140625 Z M 2.828125 -2.140625 "/></g></g></g><g fill="#183e72" fill-opacity="1"><g transform="translate(50.004294, 15.432181)"><g><path d="M 1.34375 -4.734375 C 1.328125 -4.921875 1.3125 -5.140625 1.21875 -5.296875 C 1.15625 -5.421875 0.984375 -5.546875 0.859375 -5.546875 C 0.734375 -5.546875 0.59375 -5.421875 0.484375 -5.3125 C 0.421875 -5.21875 0.40625 -5.078125 0.390625 -4.953125 C 0.3125 -4.21875 0.265625 -1.875 0.28125 -1.4375 C 0.28125 -1.25 0.296875 -1.0625 0.34375 -0.890625 C 0.4375 -0.609375 0.625 -0.453125 0.859375 -0.4375 C 1.09375 -0.4375 1.328125 -0.578125 1.390625 -0.859375 C 1.46875 -1.1875 1.53125 -1.5 1.515625 -1.828125 C 1.484375 -2.796875 1.40625 -3.765625 1.34375 -4.734375 Z M 1.34375 -4.734375 "/></g></g></g><g fill="#183e72" fill-opacity="1"><g transform="translate(51.801059, 15.432181)"><g><path d="M 3.8125 -1.484375 C 3.703125 -2 3.625 -2.53125 3.515625 -3.046875 C 3.46875 -3.203125 3.421875 -3.421875 3.3125 -3.515625 C 2.953125 -3.796875 2.5625 -4.03125 2.0625 -3.953125 C 1.1875 -3.796875 0.34375 -2.84375 0.28125 -1.921875 C 0.203125 -1.0625 0.890625 -0.46875 1.734375 -0.671875 C 1.953125 -0.734375 2.171875 -0.859375 2.375 -0.953125 C 2.453125 -1 2.515625 -1.046875 2.578125 -1.109375 C 2.625 -1.046875 2.65625 -1.03125 2.671875 -0.984375 C 2.921875 -0.609375 3.234375 -0.46875 3.53125 -0.59375 C 3.828125 -0.734375 3.90625 -1.046875 3.8125 -1.484375 Z M 1.65625 -1.75 C 1.578125 -1.71875 1.46875 -1.703125 1.390625 -1.75 C 1.34375 -1.765625 1.34375 -1.921875 1.375 -2 C 1.53125 -2.453125 1.796875 -2.828125 2.296875 -3.03125 C 2.375 -2.46875 2.109375 -1.921875 1.65625 -1.75 Z M 1.65625 -1.75 "/></g></g></g><g fill="#183e72" fill-opacity="1"><g transform="translate(55.93659, 15.432181)"><g><path d="M 3.09375 -1.28125 C 3 -1.515625 2.8125 -1.59375 2.578125 -1.5625 C 2.46875 -1.5625 2.34375 -1.53125 2.234375 -1.515625 C 2.046875 -1.484375 1.90625 -1.5625 1.875 -1.75 C 1.8125 -2.046875 1.796875 -2.34375 1.765625 -2.65625 C 2.03125 -2.65625 2.234375 -2.640625 2.4375 -2.65625 C 2.703125 -2.671875 2.921875 -2.875 2.9375 -3.125 C 2.96875 -3.390625 2.796875 -3.625 2.515625 -3.6875 C 2.34375 -3.734375 2.171875 -3.75 2 -3.75 C 1.84375 -3.75 1.78125 -3.8125 1.78125 -3.96875 C 1.78125 -4.171875 1.78125 -4.390625 1.75 -4.609375 C 1.71875 -4.90625 1.578125 -5.046875 1.375 -5.0625 C 1.171875 -5.0625 1.03125 -4.90625 0.96875 -4.609375 C 0.9375 -4.4375 0.90625 -4.265625 0.890625 -4.09375 C 0.890625 -3.890625 0.796875 -3.8125 0.609375 -3.734375 C 0.46875 -3.671875 0.328125 -3.515625 0.296875 -3.375 C 0.21875 -3.171875 0.375 -3.015625 0.5625 -2.9375 C 0.703125 -2.875 0.734375 -2.796875 0.734375 -2.65625 C 0.734375 -2.34375 0.75 -2.046875 0.78125 -1.734375 C 0.828125 -1.3125 1.03125 -0.953125 1.375 -0.6875 C 1.796875 -0.359375 2.5625 -0.375 2.9375 -0.71875 C 3.09375 -0.875 3.1875 -1.0625 3.09375 -1.28125 Z M 3.09375 -1.28125 "/></g></g></g><g fill="#183e72" fill-opacity="1"><g transform="translate(59.351931, 15.432181)"><g><path d="M 2.609375 -3.484375 C 2.4375 -3.5 2.265625 -3.53125 2.09375 -3.578125 C 1.796875 -3.671875 1.5 -3.625 1.234375 -3.46875 C 0.625 -3.09375 0.234375 -2.5625 0.125 -1.84375 C 0.03125 -1.21875 0.3125 -0.75 0.890625 -0.546875 C 1.1875 -0.4375 1.5 -0.40625 1.8125 -0.328125 C 2.265625 -0.328125 2.65625 -0.46875 2.96875 -0.78125 C 3.359375 -1.15625 3.5625 -1.625 3.625 -2.15625 C 3.71875 -2.828125 3.28125 -3.390625 2.609375 -3.484375 Z M 2.390625 -2.0625 C 2.25 -1.640625 2.109375 -1.515625 1.828125 -1.53125 C 1.25 -1.5625 1.15625 -1.71875 1.453125 -2.234375 C 1.46875 -2.265625 1.484375 -2.3125 1.515625 -2.34375 C 1.796875 -2.765625 1.859375 -2.765625 2.265625 -2.484375 C 2.421875 -2.359375 2.46875 -2.234375 2.390625 -2.0625 Z M 2.390625 -2.0625 "/></g></g></g><g fill="#183e72" fill-opacity="1"><g transform="translate(63.175625, 15.432181)"><g><path d="M 3.328125 -2.953125 C 3.234375 -3.265625 3 -3.484375 2.703125 -3.640625 C 2.234375 -3.875 1.765625 -3.859375 1.296875 -3.609375 C 1.234375 -3.765625 1.203125 -3.9375 1.109375 -4.03125 C 1.015625 -4.15625 0.84375 -4.265625 0.703125 -4.25 C 0.578125 -4.25 0.453125 -4.078125 0.34375 -3.96875 C 0.296875 -3.90625 0.296875 -3.78125 0.296875 -3.703125 C 0.28125 -2.8125 0.28125 -1.921875 0.28125 -1.046875 C 0.265625 -0.953125 0.296875 -0.859375 0.3125 -0.765625 C 0.390625 -0.40625 0.671875 -0.1875 1.03125 -0.203125 C 1.359375 -0.234375 1.625 -0.484375 1.65625 -0.84375 C 1.671875 -1.015625 1.625 -1.1875 1.65625 -1.34375 C 1.75 -1.703125 1.84375 -2.0625 1.96875 -2.40625 C 2.03125 -2.59375 2.1875 -2.640625 2.375 -2.546875 C 2.53125 -2.46875 2.671875 -2.375 2.828125 -2.375 C 2.96875 -2.359375 3.171875 -2.390625 3.265625 -2.484375 C 3.34375 -2.59375 3.375 -2.8125 3.328125 -2.953125 Z M 3.328125 -2.953125 "/></g></g></g><path fill="#183e72" d="M 7.277344 11.628906 C 7.65625 11.265625 7.867188 10.820312 7.917969 10.300781 L 6.640625 10.300781 C 6.695312 10.816406 6.90625 11.261719 7.277344 11.628906 Z M 7.277344 11.628906 " fill-opacity="1" fill-rule="nonzero"/><g clip-path="url(#b8932d6adc)"><path fill="#183e72" d="M 9.988281 12.851562 L 9.988281 8.589844 C 9.988281 8.429688 9.933594 8.292969 9.820312 8.179688 C 9.710938 8.066406 9.574219 8.007812 9.414062 8.003906 L 5.152344 8.003906 C 4.992188 8.003906 4.851562 8.0625 4.738281 8.175781 C 4.625 8.289062 4.566406 8.429688 4.566406 8.589844 L 4.566406 12.851562 C 4.570312 13.011719 4.628906 13.148438 4.742188 13.257812 C 4.855469 13.371094 4.992188 13.425781 5.152344 13.425781 L 9.414062 13.425781 C 9.570312 13.425781 9.707031 13.371094 9.820312 13.257812 C 9.929688 13.144531 9.988281 13.011719 9.988281 12.851562 Z M 8.804688 12.246094 C 8.957031 12.25 9.03125 12.328125 9.035156 12.480469 C 9.035156 12.632812 8.960938 12.710938 8.804688 12.710938 C 8.242188 12.710938 7.734375 12.550781 7.277344 12.222656 C 6.824219 12.550781 6.316406 12.710938 5.757812 12.710938 C 5.605469 12.710938 5.527344 12.632812 5.527344 12.480469 C 5.53125 12.328125 5.605469 12.25 5.757812 12.246094 C 6.175781 12.246094 6.558594 12.136719 6.910156 11.914062 C 6.472656 11.464844 6.226562 10.925781 6.167969 10.300781 L 5.761719 10.300781 C 5.613281 10.292969 5.539062 10.214844 5.539062 10.070312 C 5.539062 9.921875 5.613281 9.84375 5.761719 9.835938 L 7.046875 9.835938 L 7.046875 8.953125 C 7.050781 8.804688 7.125 8.726562 7.277344 8.722656 C 7.429688 8.722656 7.507812 8.796875 7.507812 8.953125 L 7.507812 9.835938 L 8.800781 9.835938 C 8.949219 9.84375 9.023438 9.921875 9.023438 10.070312 C 9.023438 10.214844 8.949219 10.292969 8.800781 10.300781 L 8.386719 10.300781 C 8.335938 10.925781 8.09375 11.464844 7.652344 11.914062 C 8.003906 12.136719 8.386719 12.25 8.804688 12.246094 Z M 8.804688 12.246094 " fill-opacity="1" fill-rule="nonzero"/></g><g clip-path="url(#8d69ed7a32)"><path fill="#183e72" d="M 14.101562 12.695312 L 10.449219 12.695312 L 10.449219 12.851562 C 10.449219 12.988281 10.421875 13.121094 10.371094 13.246094 C 10.316406 13.375 10.242188 13.484375 10.144531 13.582031 C 10.046875 13.679688 9.9375 13.753906 9.808594 13.808594 C 9.683594 13.859375 9.550781 13.886719 9.414062 13.886719 L 9.261719 13.886719 L 9.261719 17.539062 C 9.261719 17.699219 9.320312 17.835938 9.433594 17.945312 C 9.546875 18.058594 9.679688 18.113281 9.839844 18.113281 L 14.101562 18.113281 C 14.261719 18.113281 14.394531 18.058594 14.507812 17.945312 C 14.621094 17.832031 14.675781 17.699219 14.675781 17.539062 L 14.675781 13.277344 C 14.679688 13.117188 14.625 12.980469 14.511719 12.863281 C 14.398438 12.75 14.261719 12.695312 14.101562 12.695312 Z M 13.222656 17.199219 C 13.078125 17.25 12.980469 17.207031 12.921875 17.066406 L 12.644531 16.300781 L 11.300781 16.300781 L 11.019531 17.066406 C 10.984375 17.164062 10.910156 17.214844 10.804688 17.214844 C 10.777344 17.214844 10.75 17.207031 10.722656 17.199219 C 10.578125 17.144531 10.535156 17.050781 10.589844 16.90625 L 11.753906 13.746094 C 11.789062 13.644531 11.863281 13.59375 11.96875 13.589844 C 12.082031 13.589844 12.15625 13.644531 12.191406 13.746094 L 13.355469 16.90625 C 13.410156 17.050781 13.367188 17.148438 13.222656 17.199219 Z M 13.222656 17.199219 " fill-opacity="1" fill-rule="nonzero"/></g><path fill="#183e72" d="M 11.472656 15.839844 L 12.46875 15.839844 L 11.96875 14.488281 Z M 11.472656 15.839844 " fill-opacity="1" fill-rule="nonzero"/><g clip-path="url(#4116780534)"><path fill="#183e72" d="M 15.136719 11.148438 C 15.136719 10.667969 15.046875 10.210938 14.863281 9.769531 C 14.679688 9.328125 14.421875 8.9375 14.082031 8.601562 C 13.746094 8.261719 13.355469 8 12.914062 7.816406 C 12.472656 7.636719 12.011719 7.542969 11.535156 7.542969 C 11.382812 7.546875 11.308594 7.625 11.304688 7.773438 C 11.304688 7.929688 11.378906 8.003906 11.535156 8.003906 C 11.9375 8.003906 12.328125 8.082031 12.703125 8.230469 C 13.078125 8.378906 13.410156 8.59375 13.703125 8.875 C 13.996094 9.152344 14.222656 9.476562 14.390625 9.84375 C 14.558594 10.214844 14.652344 10.597656 14.667969 11.003906 L 13.878906 11.003906 C 13.816406 11 13.761719 11.023438 13.714844 11.070312 C 13.671875 11.113281 13.648438 11.167969 13.648438 11.234375 C 13.652344 11.386719 13.726562 11.460938 13.878906 11.464844 L 14.90625 11.464844 C 15.0625 11.464844 15.136719 11.386719 15.136719 11.234375 C 15.136719 11.21875 15.132812 11.203125 15.128906 11.191406 C 15.132812 11.175781 15.136719 11.164062 15.136719 11.148438 Z M 15.136719 11.148438 " fill-opacity="1" fill-rule="nonzero"/></g><g clip-path="url(#6b36beda55)"><path fill="#183e72" d="M 7.710938 18.113281 C 7.308594 18.113281 6.917969 18.039062 6.546875 17.886719 C 6.171875 17.738281 5.839844 17.523438 5.546875 17.246094 C 5.257812 16.96875 5.027344 16.644531 4.859375 16.277344 C 4.691406 15.914062 4.597656 15.527344 4.578125 15.125 L 5.375 15.125 C 5.523438 15.125 5.601562 15.046875 5.605469 14.894531 C 5.605469 14.742188 5.527344 14.664062 5.375 14.664062 L 4.335938 14.664062 C 4.183594 14.667969 4.109375 14.742188 4.113281 14.894531 C 4.113281 14.90625 4.117188 14.917969 4.117188 14.929688 C 4.117188 14.945312 4.113281 14.957031 4.113281 14.972656 C 4.113281 15.449219 4.203125 15.910156 4.386719 16.351562 C 4.570312 16.792969 4.832031 17.179688 5.167969 17.519531 C 5.503906 17.855469 5.894531 18.117188 6.335938 18.300781 C 6.777344 18.484375 7.234375 18.574219 7.714844 18.578125 C 7.777344 18.578125 7.832031 18.554688 7.878906 18.511719 C 7.921875 18.464844 7.945312 18.410156 7.941406 18.34375 C 7.945312 18.191406 7.867188 18.113281 7.710938 18.113281 Z M 7.710938 18.113281 " fill-opacity="1" fill-rule="nonzero"/></g></svg>